# xmcd
#
# Track frame offsets:
#	150
#	12418
#	25083
#	39234
#	52000
#	65307
#	76008
#	88121
#	101510
#	114465
#	128930
#	143270
#	156399
#	169981
#	181952
#	195351
#	210332
#	221883
#
# Disc length: 3120 seconds
#
# Revision: 1
# Processed by: cddbd v1.4PL0 Copyright (c) Steve Scherf et al.
# Submitted via: audiograbber 1.81.03
#
DISCID=eb0c2e12
DTITLE=Various Artist - County Jail Blues - CD 2
DYEAR=2001
DGENRE=Blues
TTITLE0=Sonny Terry - Worried Man Blues
TTITLE1=T Bone Walker - Hypin' Woman Blues
TTITLE2=Charles Brown - Again
TTITLE3=Amos Milburn - Chicken Shack Boogie
TTITLE4=John Lee Hooker - She Was In Chicago
TTITLE5=Calvin Boze - Safronia B
TTITLE6=Helen Humes - Be Baba Leba
TTITLE7=Joe Turner - I'm In Sharp When I Hit The Coast
TTITLE8=Ella Mae Morse With Don Raye - The House Of Blue Lights
TTITLE9=Jay McShann's Kansas City Stompers - Merry Go Round Blues
TTITLE10=Lester Young - Jumping With Symphony Sid
TTITLE11=Lalo Guerero - Chicas Patas Boogie (Oh Babe!)
TTITLE12=John Lee Hooker - I Met The Grindin' Man
TTITLE13=King Cole Trio - Oh, But I Do
TTITLE14=Sonny Terry - Custard Pie Blues
TTITLE15=Lonnie Johnson - He's A Jelly Roll Baker
TTITLE16=Joe Turner - Ice Man Blues
TTITLE17=Charles Brown - Cryin' Mercy
EXTD=
EXTT0=
EXTT1=
EXTT2=
EXTT3=
EXTT4=
EXTT5=
EXTT6=
EXTT7=
EXTT8=
EXTT9=
EXTT10=
EXTT11=
EXTT12=
EXTT13=
EXTT14=
EXTT15=
EXTT16=
EXTT17=
PLAYORDER=
